<?xml version="1.0" encoding="utf-8"?>
<svg height="105" width="393" style="width: 393px; height: 105px; position: absolute; top: 50%; left: 50%; transform: translate(-50%, -50%) scale(1); z-index: 0; cursor: pointer; overflow: visible;"><defs id="SvgjsDefs1001"></defs><g id="SvgjsG1007" featurekey="rootContainer" transform="matrix(1,0,0,1,0,0)" fill="#fffbf3"><rect xmlns="http://www.w3.org/2000/svg" width="393" height="105" rx="10" ry="10"></rect></g><g id="SvgjsG1008" featurekey="nameLeftFeature-0" transform="matrix(1.1494252985560909,0,0,1.1494252985560909,19.999999725955654,22.356321715883)" fill="#111111"><path d="M10.96 40.08 l-4.08 0 l-2.2 -6.04 l-0.88 0 l0 6.04 l-3.8 0 l0 -28.64 l5.96 0 c2.64 0 4.76 2.12 4.76 4.76 l0 13.08 c0 1.72 -0.88 3.2 -2.24 4.04 z M3.8 15.239999999999998 l0 15 l2.16 0 c0.52 0 0.96 -0.44 0.96 -0.96 l0 -13.08 c0 -0.52 -0.44 -0.96 -0.96 -0.96 l-2.16 0 z M22.96 40 l-1.44 -9.88 l-4.04 0 l-1.32 9.88 l-3.84 0 l4.32 -28.6 l5.16 0 l5 28.6 l-3.84 0 z M18 26.32 l2.96 0 l-1.52 -10.4 z M32.6 11.36 l0 28.48 l-3.8 0 l0 -28.48 l3.8 0 z M47.68 39.6 l-2.92 2.72 l-2.2 -2.36 c-0.68 0.4 -1.52 0.56 -2.4 0.56 c-3.08 0 -5.56 -2.48 -5.56 -5.56 l0 -18.4 c0 -3.08 2.48 -5.56 5.56 -5.56 s5.56 2.48 5.56 5.56 l0 18.4 c0 0.76 -0.16 1.48 -0.4 2.16 z M40.160000000000004 36.56 c0.88 0 1.64 -0.68 1.64 -1.6 l0 -18.4 c0 -0.92 -0.76 -1.64 -1.64 -1.64 s-1.6 0.72 -1.6 1.64 l0 18.4 c0 0.92 0.72 1.6 1.6 1.6 z M53.88 40.08 c-3.24 0 -5.88 -2.64 -5.88 -5.88 l0 -22.72 l3.8 0 l0 22.72 c0 1.16 0.92 2.12 2.08 2.12 s2.08 -0.96 2.08 -2.12 l0 -22.72 l3.8 0 l0 22.72 c0 3.24 -2.64 5.88 -5.88 5.88 z M71.08 23.04 c0.88 0.88 1.44 2.08 1.44 3.4 l0 8.76 c0 2.64 -2.16 4.8 -4.8 4.8 l-5.92 0 l-0.04 -28.48 l5.28 0 c2.92 0.12 4.64 2.92 4.6 5.56 l-0.04 3.96 c0 0.72 -0.2 1.4 -0.52 2 z M67.72 36.16 c0.56 0 1 -0.44 1 -0.96 l-0.04 -8.76 c0 -0.56 -0.44 -0.96 -0.96 -0.96 l-2.12 0 l0 10.68 l2.12 0 z M65.56 15.32 l0 6.32 l1.6 0 c0.32 0 0.64 -0.28 0.64 -0.64 l0.04 -3.96 c0 -0.8 -0.4 -1.68 -0.96 -1.72 l-1.32 0 z"></path></g><g id="SvgjsG1009" featurekey="inlineSymbolFeature-0" transform="matrix(0.8537550093663642,0,0,0.8537550093663642,114.63320074536878,9.75493988760363)" fill="#eb89b5"><g xmlns="http://www.w3.org/2000/svg"><path d="M63.5,12c-2.7,0-5,1.7-5.9,4.1h-19c-1.2,0-2.2,1-2.2,2.2c0,1.2,1,2.2,2.2,2.2h19c0.9,2.4,3.2,4.1,5.9,4.1   c3.5,0,6.3-2.8,6.3-6.3S67,12,63.5,12z M63.5,22.6c-2.4,0-4.3-1.9-4.3-4.3s1.9-4.3,4.3-4.3c2.4,0,4.3,1.9,4.3,4.3   S65.9,22.6,63.5,22.6z"></path><path d="M83.9,33.1c-2.7,0-5,1.7-5.9,4.1H18.3c-1.2,0-2.2,1-2.2,2.2c0,1.2,1,2.2,2.2,2.2H78c0.9,2.4,3.2,4.1,5.9,4.1   c3.5,0,6.3-2.8,6.3-6.3C90.2,35.9,87.4,33.1,83.9,33.1z M83.9,43.7c-2.4,0-4.3-1.9-4.3-4.3s1.9-4.3,4.3-4.3s4.3,1.9,4.3,4.3   S86.3,43.7,83.9,43.7z"></path><path d="M72.8,26.7H33.9c-0.9-2.4-3.2-4.1-5.9-4.1c-3.5,0-6.3,2.8-6.3,6.3s2.8,6.3,6.3,6.3c2.7,0,5-1.7,5.9-4.1h38.9   c1.2,0,2.2-1,2.2-2.2C75,27.7,74.1,26.7,72.8,26.7z M28,33.2c-2.4,0-4.3-1.9-4.3-4.3s1.9-4.3,4.3-4.3s4.3,1.9,4.3,4.3   S30.4,33.2,28,33.2z"></path><path d="M83.5,47.8H22c-0.9-2.4-3.2-4.1-5.9-4.1c-3.5,0-6.3,2.8-6.3,6.3c0,3.5,2.8,6.3,6.3,6.3c2.7,0,5-1.7,5.9-4.1h61.5   c1.2,0,2.2-1,2.2-2.2C85.7,48.8,84.7,47.8,83.5,47.8z M16.1,54.3c-2.4,0-4.3-1.9-4.3-4.3c0-2.4,1.9-4.3,4.3-4.3s4.3,1.9,4.3,4.3   C20.4,52.4,18.5,54.3,16.1,54.3z"></path><path d="M72.8,68.9H32.6c-0.9-2.4-3.2-4.1-5.9-4.1c-3.5,0-6.3,2.8-6.3,6.3c0,3.5,2.8,6.3,6.3,6.3c2.7,0,5-1.7,5.9-4.1h40.2   c1.2,0,2.2-1,2.2-2.2C75,69.9,74.1,68.9,72.8,68.9z M26.7,75.4c-2.4,0-4.3-1.9-4.3-4.3c0-2.4,1.9-4.3,4.3-4.3s4.3,1.9,4.3,4.3   C31,73.5,29.1,75.4,26.7,75.4z"></path><path d="M83.9,54.2c-2.7,0-5,1.7-5.9,4.1H18.3c-1.2,0-2.2,1-2.2,2.2c0,1.2,1,2.2,2.2,2.2H78c0.9,2.4,3.2,4.1,5.9,4.1   c3.5,0,6.3-2.8,6.3-6.3C90.2,57.1,87.4,54.2,83.9,54.2z M83.9,64.8c-2.4,0-4.3-1.9-4.3-4.3s1.9-4.3,4.3-4.3s4.3,1.9,4.3,4.3   S86.3,64.8,83.9,64.8z"></path><path d="M62.4,75.3c-2.7,0-5,1.7-5.9,4.1H38.7c-1.2,0-2.2,1-2.2,2.2c0,1.2,1,2.2,2.2,2.2h17.9c0.9,2.4,3.2,4.1,5.9,4.1   c3.5,0,6.3-2.8,6.3-6.3S65.9,75.3,62.4,75.3z M62.4,85.9c-2.4,0-4.3-1.9-4.3-4.3s1.9-4.3,4.3-4.3c2.4,0,4.3,1.9,4.3,4.3   S64.8,85.9,62.4,85.9z"></path></g></g><g id="SvgjsG1010" featurekey="nameRightFeature-0" transform="matrix(1.2211669117708905,0,0,1.2211669117708905,202.2306658704284,21.860241420651253)" fill="#111111"><path d="M17.32 24.92 l-5.52 0 l0 11.28 l5.56 0 l0 3.8 l-9.36 0 l0 -28.56 l9.36 0 l0 3.8 l-5.56 0 l0 5.88 l5.52 0 l0 3.8 z M30.36 11.440000000000001 l-3.8 14.32 l3.76 14.24 l-3.4 0 l-2.08 -7.84 l-2.04 7.84 l-3.4 0 l3.76 -14.24 l-3.8 -14.32 l3.4 0 l2.08 7.88 l2.12 -7.88 l3.4 0 z M36.16 34 l0 5.96 l-3.8 0 l0 -28.52 l5.92 0 c2.64 0 4.76 2.16 4.76 4.8 l0 13 c0 2.64 -2.12 4.76 -4.76 4.76 l-2.12 0 z M36.16 15.239999999999998 l0 14.96 l2.12 0 c0.56 0 0.96 -0.4 0.96 -0.96 l0 -13 c0 -0.56 -0.4 -1 -0.96 -1 l-2.12 0 z M56 40.08 l-4.08 0 l-2.2 -6.04 l-0.88 0 l0 6.04 l-3.8 0 l0 -28.64 l5.96 0 c2.64 0 4.76 2.12 4.76 4.76 l0 13.08 c0 1.72 -0.88 3.2 -2.24 4.04 z M48.839999999999996 15.239999999999998 l0 15 l2.16 0 c0.52 0 0.96 -0.44 0.96 -0.96 l0 -13.08 c0 -0.52 -0.44 -0.96 -0.96 -0.96 l-2.16 0 z M67.32 24.92 l-5.52 0 l0 11.28 l5.56 0 l0 3.8 l-9.36 0 l0 -28.56 l9.36 0 l0 3.8 l-5.56 0 l0 5.88 l5.52 0 l0 3.8 z M74.84 40.24 c-3.04 0 -5.48 -2.48 -5.48 -5.48 l0 -4.36 l3.88 0 l0 4.36 c0 0.88 0.72 1.6 1.6 1.6 s1.56 -0.72 1.56 -1.6 l0 -3.8 l-7.04 -9.72 l0 -4.96 c0 -3.04 2.44 -5.52 5.48 -5.52 c3 0 5.44 2.48 5.44 5.52 l0 4.32 l-3.88 0 l0 -4.32 c0 -0.92 -0.68 -1.6 -1.56 -1.6 s-1.6 0.68 -1.6 1.6 l0 3.64 l7.04 9.72 l0 5.12 c0 3 -2.44 5.48 -5.44 5.48 z M87.76 40.24 c-3.04 0 -5.48 -2.48 -5.48 -5.48 l0 -4.36 l3.88 0 l0 4.36 c0 0.88 0.72 1.6 1.6 1.6 s1.56 -0.72 1.56 -1.6 l0 -3.8 l-7.04 -9.72 l0 -4.96 c0 -3.04 2.44 -5.52 5.48 -5.52 c3 0 5.44 2.48 5.44 5.52 l0 4.32 l-3.88 0 l0 -4.32 c0 -0.92 -0.68 -1.6 -1.56 -1.6 s-1.6 0.68 -1.6 1.6 l0 3.64 l7.04 9.72 l0 5.12 c0 3 -2.44 5.48 -5.44 5.48 z M99 11.36 l0 28.48 l-3.8 0 l0 -28.48 l3.8 0 z M106.4 40.04 c-3 0 -5.4 -2.44 -5.4 -5.4 l0 -17.96 c0 -2.96 2.4 -5.36 5.4 -5.36 c2.96 0 5.36 2.4 5.36 5.36 l0 17.96 c0 2.96 -2.4 5.4 -5.36 5.4 z M106.4 15.120000000000001 c-0.88 0 -1.56 0.72 -1.56 1.56 l0 17.96 c0 0.88 0.68 1.56 1.56 1.56 c0.84 0 1.56 -0.68 1.56 -1.56 l0 -17.96 c0 -0.84 -0.72 -1.56 -1.56 -1.56 z M123.04 33.44 l0.16 -22.16 l3.84 0 l-0.24 28.88 l-5.96 0 l-3.24 -22.36 l0 22.36 l-3.84 0 l0 -28.88 l6.2 0 z M134.52 40.24 c-3.04 0 -5.48 -2.48 -5.48 -5.48 l0 -4.36 l3.88 0 l0 4.36 c0 0.88 0.72 1.6 1.6 1.6 s1.56 -0.72 1.56 -1.6 l0 -3.8 l-7.04 -9.72 l0 -4.96 c0 -3.04 2.44 -5.52 5.48 -5.52 c3 0 5.44 2.48 5.44 5.52 l0 4.32 l-3.88 0 l0 -4.32 c0 -0.92 -0.68 -1.6 -1.56 -1.6 s-1.6 0.68 -1.6 1.6 l0 3.64 l7.04 9.72 l0 5.12 c0 3 -2.44 5.48 -5.44 5.48 z"></path></g></svg>