<?xml version="1.0" encoding="UTF-8" standalone="no"?>
<svg
   height="192"
   width="192"
   style="overflow:visible"
   version="1.1"
   id="svg9"
   sodipodi:docname="logo-red-white-symbol.svg"
   inkscape:version="1.3.2 (091e20e, 2023-11-25, custom)"
   inkscape:export-filename="logo-red-white-symbol-128.png"
   inkscape:export-xdpi="64"
   inkscape:export-ydpi="64"
   xmlns:inkscape="http://www.inkscape.org/namespaces/inkscape"
   xmlns:sodipodi="http://sodipodi.sourceforge.net/DTD/sodipodi-0.dtd"
   xmlns="http://www.w3.org/2000/svg"
   xmlns:svg="http://www.w3.org/2000/svg">
  <sodipodi:namedview
     id="namedview9"
     pagecolor="#ffffff"
     bordercolor="#000000"
     borderopacity="0.25"
     inkscape:showpageshadow="2"
     inkscape:pageopacity="0.0"
     inkscape:pagecheckerboard="0"
     inkscape:deskcolor="#d1d1d1"
     inkscape:zoom="5.5027238"
     inkscape:cx="97.951491"
     inkscape:cy="93.680879"
     inkscape:window-width="3840"
     inkscape:window-height="2054"
     inkscape:window-x="-11"
     inkscape:window-y="-11"
     inkscape:window-maximized="1"
     inkscape:current-layer="svg9"
     showguides="false" />
  <defs
     id="SvgjsDefs1001" />
  <g
     id="g9"
     transform="translate(-77)">
    <g
       id="SvgjsG1007"
       featurekey="symbolContainer"
       transform="matrix(0.97959184,0,0,1.026738,77,0)"
       fill="#d62b70">
      <rect
         width="196"
         height="187"
         rx="10"
         ry="10"
         id="rect1"
         x="0"
         y="0" />
    </g>
    <g
       id="SvgjsG1008"
       featurekey="symbolFeature-0"
       transform="matrix(1.9347706,0,0,1.9347706,76.26147,-3.2172467)"
       fill="#ffffff">
      <g
         id="g7">
        <path
           d="m 63.5,12 c -2.7,0 -5,1.7 -5.9,4.1 h -19 c -1.2,0 -2.2,1 -2.2,2.2 0,1.2 1,2.2 2.2,2.2 h 19 c 0.9,2.4 3.2,4.1 5.9,4.1 3.5,0 6.3,-2.8 6.3,-6.3 C 69.8,14.8 67,12 63.5,12 Z m 0,10.6 c -2.4,0 -4.3,-1.9 -4.3,-4.3 0,-2.4 1.9,-4.3 4.3,-4.3 2.4,0 4.3,1.9 4.3,4.3 0,2.4 -1.9,4.3 -4.3,4.3 z"
           id="path1" />
        <path
           d="m 83.9,33.1 c -2.7,0 -5,1.7 -5.9,4.1 H 18.3 c -1.2,0 -2.2,1 -2.2,2.2 0,1.2 1,2.2 2.2,2.2 H 78 c 0.9,2.4 3.2,4.1 5.9,4.1 3.5,0 6.3,-2.8 6.3,-6.3 0,-3.5 -2.8,-6.3 -6.3,-6.3 z m 0,10.6 c -2.4,0 -4.3,-1.9 -4.3,-4.3 0,-2.4 1.9,-4.3 4.3,-4.3 2.4,0 4.3,1.9 4.3,4.3 0,2.4 -1.9,4.3 -4.3,4.3 z"
           id="path2" />
        <path
           d="M 72.8,26.7 H 33.9 C 33,24.3 30.7,22.6 28,22.6 c -3.5,0 -6.3,2.8 -6.3,6.3 0,3.5 2.8,6.3 6.3,6.3 2.7,0 5,-1.7 5.9,-4.1 h 38.9 c 1.2,0 2.2,-1 2.2,-2.2 0,-1.2 -0.9,-2.2 -2.2,-2.2 z M 28,33.2 c -2.4,0 -4.3,-1.9 -4.3,-4.3 0,-2.4 1.9,-4.3 4.3,-4.3 2.4,0 4.3,1.9 4.3,4.3 0,2.4 -1.9,4.3 -4.3,4.3 z"
           id="path3" />
        <path
           d="M 83.5,47.8 H 22 c -0.9,-2.4 -3.2,-4.1 -5.9,-4.1 -3.5,0 -6.3,2.8 -6.3,6.3 0,3.5 2.8,6.3 6.3,6.3 2.7,0 5,-1.7 5.9,-4.1 h 61.5 c 1.2,0 2.2,-1 2.2,-2.2 0,-1.2 -1,-2.2 -2.2,-2.2 z m -67.4,6.5 c -2.4,0 -4.3,-1.9 -4.3,-4.3 0,-2.4 1.9,-4.3 4.3,-4.3 2.4,0 4.3,1.9 4.3,4.3 0,2.4 -1.9,4.3 -4.3,4.3 z"
           id="path4" />
        <path
           d="M 72.8,68.9 H 32.6 c -0.9,-2.4 -3.2,-4.1 -5.9,-4.1 -3.5,0 -6.3,2.8 -6.3,6.3 0,3.5 2.8,6.3 6.3,6.3 2.7,0 5,-1.7 5.9,-4.1 h 40.2 c 1.2,0 2.2,-1 2.2,-2.2 0,-1.2 -0.9,-2.2 -2.2,-2.2 z m -46.1,6.5 c -2.4,0 -4.3,-1.9 -4.3,-4.3 0,-2.4 1.9,-4.3 4.3,-4.3 2.4,0 4.3,1.9 4.3,4.3 0,2.4 -1.9,4.3 -4.3,4.3 z"
           id="path5" />
        <path
           d="m 83.9,54.2 c -2.7,0 -5,1.7 -5.9,4.1 H 18.3 c -1.2,0 -2.2,1 -2.2,2.2 0,1.2 1,2.2 2.2,2.2 H 78 c 0.9,2.4 3.2,4.1 5.9,4.1 3.5,0 6.3,-2.8 6.3,-6.3 0,-3.4 -2.8,-6.3 -6.3,-6.3 z m 0,10.6 c -2.4,0 -4.3,-1.9 -4.3,-4.3 0,-2.4 1.9,-4.3 4.3,-4.3 2.4,0 4.3,1.9 4.3,4.3 0,2.4 -1.9,4.3 -4.3,4.3 z"
           id="path6" />
        <path
           d="m 62.4,75.3 c -2.7,0 -5,1.7 -5.9,4.1 H 38.7 c -1.2,0 -2.2,1 -2.2,2.2 0,1.2 1,2.2 2.2,2.2 h 17.9 c 0.9,2.4 3.2,4.1 5.9,4.1 3.5,0 6.3,-2.8 6.3,-6.3 0,-3.5 -2.9,-6.3 -6.4,-6.3 z m 0,10.6 c -2.4,0 -4.3,-1.9 -4.3,-4.3 0,-2.4 1.9,-4.3 4.3,-4.3 2.4,0 4.3,1.9 4.3,4.3 0,2.4 -1.9,4.3 -4.3,4.3 z"
           id="path7" />
      </g>
    </g>
  </g>
</svg>
